<svg width="1200" height="760" viewBox="0 0 1200 760" fill="none" xmlns="http://www.w3.org/2000/svg">
  <defs>
    <linearGradient id="g3" x1="80" y1="76" x2="1088" y2="684" gradientUnits="userSpaceOnUse">
      <stop stop-color="#23E8A5"/>
      <stop offset="1" stop-color="#38BDF8"/>
    </linearGradient>
  </defs>
  <rect width="1200" height="760" rx="48" fill="#11181A"/>
  <rect x="86" y="98" width="1028" height="564" rx="30" fill="#142125"/>
  <rect x="146" y="166" width="356" height="188" rx="24" fill="#1C2B30"/>
  <rect x="530" y="166" width="524" height="188" rx="24" fill="#1C2B30"/>
  <rect x="146" y="382" width="908" height="218" rx="24" fill="url(#g3)" opacity="0.85"/>
  <path d="M228 530C270 498 312 510 356 462C402 412 444 444 500 400C556 356 612 370 670 312C728 254 778 286 840 244C902 202 942 242 980 228" stroke="#0E1415" stroke-width="20" stroke-linecap="round"/>
  <text x="146" y="630" fill="#E9FFF7" font-family="Sora, Arial, sans-serif" font-size="46" font-weight="700">Vibe Analytics</text>
</svg>
